<?xml version="1.0" encoding="UTF-8"?>
<svg id="Layer_1" xmlns="http://www.w3.org/2000/svg" version="1.1" viewBox="350 758 2300 475">
  <defs>
    <style>
      .st1 {
        fill: #fff;
      }

      .st2 {
        fill: #41c4cb;
      }
    </style>
  </defs>
  <g>
    <path class="st2" d="M2561.4,768.1c18.6-2.9,39.7-1,54.3,12.1,15.2,12.6,24,33,20.6,52.7-2.5,18.9-16.5,34.3-33,42.9-12.1,6.6-26.7,6.4-40,4.9-25.3-3.3-46.7-25.3-49.1-50.7-3.1-28.7,18.8-57.1,47.2-61.8Z"/>
    <g>
      <g>
        <path class="st1" d="M1158.3,871.1c63.3-2.6,128.1,2,187.9,24,34.8,14,69.5,34.4,89.1,67.4,24.4,40.7,25,91.1,16,136.4-6.9,36.4-30.9,67.8-61.6,87.6-52.7,33.3-116.2,43.4-177.5,46.3-66.9,1.8-135.9-2.1-198.2-28.6-29.6-11.9-56-31.9-73.9-58.4-20.9-32.9-24.9-73.4-22.6-111.4,2-27.8,9.9-55.5,25.4-78.9,11.9-15.7,27.2-28.7,43.1-40.2,51.9-30.2,112.5-42.8,172.1-44.1ZM1173.2,926.4c-25,.9-50.2,3.9-73.7,12.9-21.4,8.1-41.5,21.9-52.1,42.7-16.8,31.7-16.8,69.5-12.1,104.2,4.2,31.3,24.7,59.1,53,73,39.8,19.4,85.5,21.3,128.9,18.4,33.4-2.9,69.3-11.1,93.8-35.7,24.8-22.3,31.1-57.9,30.6-89.8.4-34-7.2-71.7-35-94.3-36.9-30.6-87.6-32.2-133.2-31.4Z"/>
        <path class="st1" d="M363,881.3c38.8.9,77.7-.3,116.5.2,5.7-.8,8.8,4.7,11.5,8.7,25.3,44.1,49.8,88.7,75.6,132.6,28.2,49.2,55.3,99.1,86,146.8,52.8-93.4,103.6-188,156.1-281.5,2.5-3.6,6.4-6.4,11-5.9,31.9,0,63.8-.3,95.7,0,.4,1.2,1.2,3.5,1.6,4.7-54.7,95.1-108.1,191-163.9,285.5-8.9,14.6-16.1,31.9-31.5,40.9-12.1,7.3-26.3,10.5-40.4,10-26.9-.3-53.7.3-80.5,0-17.7-.2-35.2-7.4-47.4-20.3-6.6-8.3-11.3-17.8-16.7-26.9-58-98.3-116.1-196.5-173.8-294.9Z"/>
      </g>
      <path class="st1" d="M1444.4,882.9c43-1.6,86.1-.3,129.1-.8,10.2.2,16.7,9.7,24.3,15.3,42.4,34.5,84,69.9,125.9,105.1,6.2-2,10.5-8.4,15.8-12.3,41-35.3,83.6-68.6,124.8-103.7,5.4-5.8,13.7-4.3,20.8-4.4,38.6.7,77.3-.7,115.9.8-63.4,53-128.8,103.6-193.2,155.5-27.4,19.5-52.4,42-79.8,61.6-50.9,40.6-100.1,83.4-151.5,123.4-43.7-1.2-87.4,0-131-.3,68.1-56.5,138-110.8,205-168.5-45.2-36.9-90.3-73.9-135.2-111.2-23.3-20.4-48.9-38.3-70.9-60.3Z"/>
      <path class="st1" d="M2463.4,1213.8c-.9,1.7-2.7,5.1-3.6,6.9-1.5.5-4.4,1.6-5.9,2.1-125.7.1-251.4-.5-377.1.2-2-3-6.3-5.1-5.7-9.2-.1-108.7,0-217.5.1-326.2,1.2-1.3,3.5-3.9,4.6-5.2,33.8-.1,67.6-.3,101.4-.5,1.4,2.7,4.2,5,4.1,8.3-.4,51.9.2,103.9-.3,155.8,1.5,38-.8,76.1,1.2,114,37.4,2,74.9.3,112.4.7,54.9.5,109.8-.4,164.7-.2.9,1.7,2.9,4.9,3.9,6.6.4,15.5.6,31.1,0,46.6Z"/>
      <g>
        <path class="st1" d="M2629.9,1219.5c-1.9,1.2-3.8,2.5-5.6,3.8-32-.7-64.1-.7-96.1-.4-2-1.4-3.9-2.8-5.8-4.1-1.4-76.7-.2-153.6-.6-230.3.5-22.4-.5-44.8.5-67.1,3.7-1.4,7.4-3.2,11.6-2.8,28,.2,55.9.2,83.9,0,4.2-.4,8.2,1.4,12,3.1,1.5,74.2,0,148.5.6,222.8-.3,25,.9,50.1-.6,75.1Z"/>
        <path class="st1" d="M1733.1,1117.7c22-20,45.5-38.3,68.8-56.8,37.2,25.5,70.3,56.3,106.1,83.7,30.8,27,64.3,50.8,94.8,78-45.9.5-91.8.2-137.7,0-44.7-34.1-87-71.3-132.1-104.9Z"/>
      </g>
    </g>
  </g>
</svg>
